<svg width="88" height="23" viewBox="0 0 88 23" fill="none" xmlns="http://www.w3.org/2000/svg">
<path d="M10.9438 22.0801L12.0638 16.4481L12.9598 9.79208L13.8558 16.4481L14.9758 22.0801H22.0158L25.9198 6.27208H19.6478L18.9438 13.0241L18.4318 18.5921L17.5358 13.0561L16.0958 6.27208H9.75984L8.44784 13.0561L7.48784 18.5921L6.97584 13.0241L6.27184 6.27208H-0.000156239L3.90384 22.0801H10.9438ZM34.2498 22.4001C36.8098 22.4001 38.5058 21.1841 39.1778 20.4161L37.6098 16.0961C37.0978 16.8961 36.2658 17.4081 35.5618 17.4081C34.8258 17.4081 34.4098 16.9921 34.4098 16.1601V10.6241H38.2498V6.27208H34.4098V1.92008L28.6498 4.48008V6.27208H26.4098V10.6241H28.6498V16.9921C28.6498 20.0641 30.1538 22.4001 34.2498 22.4001ZM49.5063 22.0801L50.6263 16.4481L51.5223 9.79208L52.4183 16.4481L53.5383 22.0801H60.5783L64.4823 6.27208H58.2103L57.5063 13.0241L56.9943 18.5921L56.0983 13.0561L54.6583 6.27208H48.3223L47.0103 13.0561L46.0503 18.5921L45.5383 13.0241L44.8343 6.27208H38.5623L42.4663 22.0801H49.5063ZM70.9736 22.0801V14.1121C70.9736 11.5521 72.1896 10.3041 73.5016 10.3041C74.4296 10.3041 74.8136 10.9121 74.8136 11.8081C74.8136 12.7681 74.1736 13.9841 73.5976 14.6561H78.8776C79.3256 13.8561 79.9656 12.2241 79.9656 10.3041C79.9656 7.68008 78.9416 5.95208 76.1896 5.95208C72.9576 5.95208 71.4536 8.89608 70.9736 11.6161V6.27208H65.2136V22.0801H70.9736ZM84.2246 6.30408C85.9526 6.30408 87.3606 5.02408 87.3606 3.13608C87.3606 1.28008 85.9526 7.62939e-05 84.2246 7.62939e-05C82.4966 7.62939e-05 81.0886 1.28008 81.0886 3.13608C81.0886 5.02408 82.4966 6.30408 84.2246 6.30408ZM84.2246 4.09608C83.7126 4.09608 83.3926 3.74408 83.3926 3.13608C83.3926 2.52808 83.7126 2.20808 84.2246 2.20808C84.7366 2.20808 85.0566 2.52808 85.0566 3.13608C85.0566 3.74408 84.7366 4.09608 84.2246 4.09608Z" fill="black"/>
</svg>
